<?xml version="1.0" encoding="UTF-8"?>
<svg id="Layer_1" xmlns="http://www.w3.org/2000/svg" version="1.1" viewBox="0 0 134.56 29.25">
  <!-- Generator: Adobe Illustrator 29.0.1, SVG Export Plug-In . SVG Version: 2.1.0 Build 192)  -->
  <defs>
    <style>
      .st0 {
        fill: #0081c6;
      }

      .st1 {
        fill: #231f20;
      }

      .st2 {
        fill: #fff;
      }
    </style>
  </defs>
  <g>
    <path class="st0" d="M22.05,27.64c0-.79.65-1.44,1.45-1.44s1.44.65,1.44,1.44-.64,1.45-1.44,1.45-1.45-.65-1.45-1.45ZM24.72,27.64c0-.7-.51-1.25-1.21-1.25s-1.22.55-1.22,1.25.51,1.26,1.22,1.26,1.21-.55,1.21-1.26ZM24.22,28.45h-.24l-.46-.74h-.36v.74h-.2v-1.61h.7c.43,0,.57.16.57.43,0,.32-.22.44-.51.44l.49.74ZM23.47,27.54c.23,0,.56.04.56-.29,0-.25-.21-.28-.41-.28h-.46v.57h.3Z"/>
    <path class="st0" d="M49.26,27.64c0-.79.65-1.44,1.45-1.44s1.44.65,1.44,1.44-.64,1.45-1.44,1.45-1.45-.65-1.45-1.45ZM51.92,27.64c0-.7-.51-1.25-1.21-1.25s-1.22.55-1.22,1.25.51,1.26,1.22,1.26,1.21-.55,1.21-1.26ZM51.43,28.45h-.24l-.46-.74h-.36v.74h-.2v-1.61h.71c.43,0,.57.16.57.43,0,.32-.22.44-.51.44l.49.74ZM50.67,27.54c.23,0,.56.04.56-.29,0-.25-.2-.28-.4-.28h-.46v.57h.3Z"/>
    <polygon class="st0" points="20.63 28.95 20.63 20.99 28.59 20.99 28.59 8.27 20.63 8.27 20.63 .31 7.96 .31 7.96 8.27 0 8.27 0 20.99 7.96 20.99 7.96 28.95 20.63 28.95"/>
    <path class="st0" d="M44.3,29.25c5.49-3.04,8.83-7.87,10.54-13.18C56.62,10.57,56.32,4.06,54.26,0c-3.14,1.58-6.3,2.37-9.96,2.38C40.63,2.4,37.47,1.58,34.33,0c-2.06,4.06-2.36,10.57-.58,16.08,1.72,5.31,5.05,10.14,10.54,13.18h0Z"/>
    <path class="st2" d="M14.32,14.65"/>
    <path class="st2" d="M14.32,14.65"/>
    <path class="st2" d="M14.32,14.65"/>
    <path class="st2" d="M14.32,14.65"/>
    <g>
      <path class="st2" d="M6.96,11.88l5.27.51c.99.14,1.1,1.1.84,1.67l-3.61,6.78h0c-1.83-1.45-3.01-3.68-3.01-6.2,0-.97.18-1.91.5-2.77h0Z"/>
      <path class="st2" d="M21.68,11.88l-5.28.51c-.99.14-1.11,1.1-.84,1.67l3.61,6.78h0c1.83-1.45,3.01-3.68,3.01-6.2,0-.97-.18-1.91-.5-2.77h0Z"/>
      <path class="st2" d="M14.32,7.79c.93,0,1.2,1.05.79,1.6-.37.48-.44.62-.42,1.08.01.38.37.85,1.17.87h5.59c-1.25-2.68-3.97-4.53-7.12-4.53s-5.87,1.85-7.12,4.53h5.59c.8-.02,1.15-.48,1.17-.87.02-.45-.05-.59-.42-1.08-.41-.54-.15-1.6.79-1.6Z"/>
      <path class="st2" d="M14.32,22.51c1.6,0,3.08-.48,4.32-1.29h0s-3.83-5.72-3.83-5.72c-.27-.37-.7-.4-.98,0l-3.83,5.73h0c1.24.81,2.72,1.29,4.32,1.29"/>
      <path class="st2" d="M44.29,26.8c4.52-2.8,6.93-6.81,8.48-11.35,1.37-4.02,1.7-8.73.2-12.41-2.26.78-3.58,1.02-4.81,1.21-1.15.18-2.17.29-3.85.31h-.01c-1.68-.02-2.7-.13-3.85-.31-1.23-.19-2.56-.43-4.82-1.21-1.51,3.68-1.17,8.38.2,12.41,1.54,4.53,3.95,8.55,8.48,11.35h-.01Z"/>
    </g>
    <g>
      <path class="st0" d="M7.74,13.04l3.99.37c.29.02.31.14.24.31l-2.8,5.34c-1.02-1.18-1.63-2.72-1.63-4.41,0-.55.07-1.09.19-1.61Z"/>
      <path class="st0" d="M12.44,8.15c-.4.66-.08,1.53.3,1.94.07.07.04.14-.03.16h-3.54c.85-.99,1.98-1.73,3.26-2.1Z"/>
      <path class="st0" d="M20.89,13.04l-3.99.37c-.29.02-.31.14-.24.31l2.8,5.34c1.02-1.18,1.63-2.72,1.63-4.41,0-.55-.07-1.09-.19-1.61Z"/>
      <path class="st0" d="M16.2,8.15c.4.66.08,1.53-.3,1.94-.07.07-.04.14.03.16h3.54c-.85-.99-1.98-1.73-3.26-2.1Z"/>
      <path class="st0" d="M44.29,25.68c3.06-1.92,6.53-6.29,7.91-12.04.74-3.05.94-6.47-.02-9.19-1.37.37-2.65.67-3.97.85-1.32.18-2.63.31-3.92.32h-.01c-1.29,0-2.6-.14-3.92-.32-1.32-.18-2.6-.48-3.97-.85-.96,2.72-.75,6.14-.02,9.19,1.39,5.74,4.85,10.11,7.91,12.04h0Z"/>
      <path class="st0" d="M14.21,16.79c.06-.08.15-.09.22,0l2.64,4.05c-.84.37-1.77.58-2.75.58s-1.91-.21-2.75-.58l2.64-4.05c.07-.09.16-.08.22,0"/>
    </g>
    <g>
      <path class="st2" d="M41.17,7.66c-1.03.54-1.39,1.8-.93,2.82.4.88,1.2,1.47,2.12,1.74.46.14.93.17,1.41.2.59.03,1.12.05,1.68.19.12.03.25.1.31.22.15.28.01.59-.28.68,0,.49-.05,1.48-.05,1.48,0,0,2.4-.23,1.99-2.39-.1-.52-.51-1.05-.97-1.29-1.2-.62-2.52-.35-3.76-.75-.41-.13-.99-.34-1.1-.81-.05-.19,0-.56.19-.62.31-.1.65.16,1.11.27.29.07.57.06.79,0,.1-.03.25-.07.26-.13-.01-.05-.12-.09-.18-.12-.14-.07-.28-.1-.43-.16-.25-.09-.5-.21-.75-.35.24-.05.63-.06.87-.03.19.02.77.02.94-.03.04,0,.12-.04.09-.11-.07-.11-.18-.16-.26-.26-.17-.23-.32-.47-.59-.57-.79-.3-1.67-.38-2.46.03Z"/>
      <path class="st2" d="M45.18,15.36v-2.52s-.31-.07-.76-.1c-.59-.04-.86-.03-.86-.03v.21s-.29.12-.33.2c-.02.03-.09.13-.06.23.23.62.55,1.23.65,1.89.44.06.83.05,1.36.12Z"/>
      <path class="st2" d="M42.16,14.98c-.11.99.54,1.52,1.25,1.69.56.13,1.11.16,1.7.23.07,0,.23.01.35.06.1.05.16.11.18.17.03.09.02.16-.04.23-.06.08-.23.12-.23.12l-.03,1.19s.48-.02.87-.25c.37-.22.59-.5.68-.86.09-.41.03-.81-.26-1.21-.19-.26-.53-.45-.87-.57-.7-.24-1.46-.21-2.19-.31-.11-.01-.21-.1-.22-.2-.02-.19.15-.27.15-.27,0,0-.09-.28-.18-.56-.08-.21-.2-.5-.28-.65-.49.21-.81.67-.87,1.18Z"/>
      <path class="st2" d="M45.12,17.17l-.02,2.13-.53-.24-.53-.22v-1.78c.46.06.68.06,1.08.11Z"/>
      <path class="st2" d="M42.73,18.35c-.29.69.08,1.36.66,1.65.3.15.7.28,1.03.41.32.12.89.47.93.64.03.1-.09.2-.09.2v.83s.33-.07.59-.29c.24-.2.42-.46.41-.87,0-.46-.21-.81-.86-1.19-.5-.3-1.11-.53-1.59-.74-.07-.03-.13-.17-.1-.25.03-.09.08-.12.08-.12v-.96s-.38.07-.55.17c-.16.09-.4.25-.51.51Z"/>
      <path class="st2" d="M45.03,21.18c0-.07-.02-.08-.05-.13-.14-.15-.35-.25-.4-.28-.15-.09-.48-.21-.48-.21,0,0,.02,2.18.06,3.31,0,.26.15.32.4.34.3.02.39-.17.39-.28.01-.36.06-1.93.07-2.75Z"/>
      <path class="st2" d="M45.26,7.15c.11.08.11.09.14.25.07.35,0,.89.07,1.13.04.08.11.08.17.04.48-.26.81-.71,1.3-.92.23-.1.87.22.72.7-.07.22-.17.26-.31.4-.28.3-.69.58-1.04.96-.24.26-.53.45-.71.74-.06.09-.15.22-.15.22-.68-.14-1.36-.11-1.89-.22v-.79s.54-.09.64-.36c0-.02,0-.12-.09-.17-.09-.07-.25-.14-.3-.16.54.09.88.18,1.4.4.04-.06.01-.19-.02-.23-.07-.08-.11-.11-.29-.15-.32-.08-1.19-.19-1.19-.19,0,0,.4,0,.74-.06.16-.03.3-.06.33-.11.04-.08-.03-.21-.15-.33-.08-.08-.16-.17-.23-.25-.08-.11-.21-.31-.35-.43-.12-.11-.43-.27-.43-.27,0,0-.05-.42.03-.59.06-.13.23-.2.31-.15.39.22.77.44,1.29.53Z"/>
      <path class="st2" d="M43.58,21.99c-.13.14-.35.41-.39.86-.03.4.06.51.16.72.08.18.27.17.34,0,.05-.13-.02-.26.02-.55.04-.21.21-.33.21-.33l-.02-.97s-.15.08-.33.26Z"/>
    </g>
    <path class="st0" d="M43.55,7.96c-.1.07-.17.15-.28.16-.22.04-.19-.16-.34-.26-.09-.07-.18.02-.27-.14.32,0,.75-.02.99.23-.03-.02-.08,0-.1.01Z"/>
  </g>
  <g>
    <path class="st1" d="M65.04,1.71h3.22c1.38,0,2.42.19,3.13.58s1.06,1.07,1.06,2.04c0,.39-.06.75-.19,1.06s-.31.58-.54.78-.52.33-.86.4v.07c.34.07.66.19.93.36s.5.42.67.75.25.76.25,1.31c0,.63-.15,1.17-.46,1.61-.31.45-.74.79-1.31,1.03s-1.25.36-2.03.36h-3.87V1.71ZM67.23,5.81h1.27c.64,0,1.08-.1,1.32-.3.25-.2.37-.5.37-.89s-.15-.68-.44-.85c-.29-.17-.75-.26-1.38-.26h-1.15v2.3ZM67.23,7.55v2.7h1.43c.66,0,1.12-.13,1.38-.38.26-.25.39-.6.39-1.03,0-.25-.06-.48-.17-.67s-.3-.34-.57-.45-.63-.16-1.1-.16h-1.36Z"/>
    <path class="st1" d="M76.19,12.06h-2.16V1.04h2.16v11.02Z"/>
    <path class="st1" d="M85.14,4.14v7.92h-1.66l-.29-1.01h-.11c-.17.27-.38.49-.64.66s-.54.29-.84.38c-.31.08-.63.12-.96.12-.57,0-1.06-.1-1.48-.3s-.75-.51-.98-.94c-.23-.42-.35-.98-.35-1.66v-5.16h2.16v4.62c0,.57.1.99.3,1.28s.53.43.97.43.78-.1,1.03-.3c.25-.2.43-.5.53-.88.1-.39.15-.87.15-1.43v-3.72h2.16Z"/>
    <path class="st1" d="M90.09,3.99c.73,0,1.36.14,1.89.42s.94.69,1.22,1.22c.29.53.43,1.19.43,1.95v1.05h-5.11c.02.61.21,1.09.55,1.43.34.35.82.52,1.43.52.5,0,.97-.05,1.39-.16.42-.1.85-.26,1.3-.47v1.67c-.39.19-.8.34-1.23.42-.43.09-.95.13-1.55.13-.79,0-1.5-.15-2.11-.44s-1.09-.74-1.44-1.34c-.35-.6-.52-1.35-.52-2.27s.16-1.7.47-2.31c.31-.62.75-1.08,1.31-1.39s1.22-.46,1.96-.46ZM90.1,5.53c-.42,0-.77.13-1.04.4-.28.27-.44.69-.48,1.27h3.03c0-.32-.06-.61-.17-.86-.11-.25-.28-.45-.5-.59-.22-.15-.5-.22-.84-.22Z"/>
    <path class="st1" d="M99.6,3.39c-.42,0-.79.08-1.11.24-.32.16-.59.4-.81.7-.22.31-.39.68-.5,1.11s-.17.92-.17,1.47c0,.73.09,1.36.27,1.87.18.52.46.91.85,1.18s.88.41,1.48.41c.42,0,.84-.05,1.26-.14s.88-.23,1.38-.4v1.84c-.46.19-.91.32-1.35.41-.44.08-.94.12-1.49.12-1.07,0-1.94-.22-2.63-.66-.69-.44-1.2-1.06-1.53-1.86-.33-.8-.5-1.72-.5-2.79,0-.78.11-1.5.32-2.15s.52-1.22.93-1.69.92-.84,1.52-1.1c.6-.26,1.3-.39,2.08-.39.51,0,1.03.06,1.55.19.52.13,1.01.31,1.48.53l-.71,1.78c-.39-.18-.78-.34-1.17-.48s-.78-.21-1.15-.21Z"/>
    <path class="st1" d="M108.11,3.99c.11,0,.24,0,.38.02.14.01.26.03.35.05l-.16,2.02c-.07-.02-.17-.04-.3-.05s-.24-.02-.34-.02c-.28,0-.55.04-.81.11-.26.07-.5.19-.71.34-.21.16-.37.37-.49.62-.12.26-.18.57-.18.95v4.03h-2.16v-7.92h1.64l.32,1.33h.11c.16-.27.35-.52.58-.74s.5-.4.8-.54c.3-.13.63-.2.97-.2Z"/>
    <path class="st1" d="M116.89,8.09c0,.66-.09,1.25-.27,1.76s-.43.94-.77,1.29c-.34.35-.74.62-1.22.8-.47.18-1.01.27-1.6.27-.56,0-1.07-.09-1.53-.27s-.87-.44-1.21-.8c-.34-.35-.61-.78-.79-1.29s-.28-1.1-.28-1.76c0-.88.16-1.62.47-2.23s.76-1.07,1.33-1.39c.58-.32,1.26-.47,2.06-.47.74,0,1.4.16,1.97.47s1.02.78,1.35,1.39.49,1.35.49,2.23ZM111.41,8.09c0,.52.06.96.17,1.31s.29.62.53.8c.24.18.55.27.94.27s.69-.09.93-.27c.24-.18.41-.45.52-.8.11-.35.17-.79.17-1.31s-.06-.96-.17-1.31c-.11-.35-.29-.61-.53-.78-.24-.17-.55-.26-.94-.26-.57,0-.99.2-1.24.59-.26.39-.39.98-.39,1.76Z"/>
    <path class="st1" d="M123.83,9.71c0,.54-.13.99-.38,1.36-.25.37-.63.65-1.13.84-.5.19-1.12.29-1.87.29-.55,0-1.03-.04-1.42-.11-.39-.07-.79-.19-1.19-.35v-1.78c.43.19.89.35,1.38.48s.93.19,1.3.19c.42,0,.72-.06.9-.19s.27-.29.27-.49c0-.13-.04-.25-.11-.36-.07-.11-.23-.23-.47-.36-.24-.13-.62-.31-1.13-.53-.5-.21-.9-.42-1.22-.63-.32-.21-.55-.46-.71-.75-.15-.29-.23-.66-.23-1.11,0-.73.28-1.28.85-1.65.57-.37,1.33-.56,2.28-.56.49,0,.96.05,1.41.15.45.1.9.26,1.38.47l-.65,1.56c-.39-.17-.76-.31-1.11-.42s-.7-.16-1.06-.16c-.32,0-.55.04-.71.13s-.24.21-.24.39c0,.13.04.24.12.34.08.1.24.21.48.33.24.12.59.27,1.05.46.45.18.84.38,1.17.58.33.2.59.45.76.74.18.29.27.68.27,1.14Z"/>
    <path class="st1" d="M130.75,9.71c0,.54-.13.99-.38,1.36-.25.37-.63.65-1.13.84-.5.19-1.12.29-1.87.29-.55,0-1.03-.04-1.42-.11-.39-.07-.79-.19-1.19-.35v-1.78c.43.19.89.35,1.38.48s.93.19,1.3.19c.42,0,.72-.06.9-.19s.27-.29.27-.49c0-.13-.04-.25-.11-.36-.07-.11-.23-.23-.47-.36-.24-.13-.62-.31-1.13-.53-.5-.21-.9-.42-1.22-.63s-.55-.46-.71-.75c-.15-.29-.23-.66-.23-1.11,0-.73.28-1.28.85-1.65.57-.37,1.33-.56,2.28-.56.49,0,.96.05,1.41.15s.91.26,1.38.47l-.65,1.56c-.39-.17-.76-.31-1.11-.42-.35-.11-.7-.16-1.06-.16-.32,0-.55.04-.72.13-.16.08-.24.21-.24.39,0,.13.04.24.12.34.08.1.24.21.48.33.24.12.59.27,1.05.46.45.18.84.38,1.17.58.33.2.58.45.76.74.18.29.27.68.27,1.14Z"/>
    <path class="st1" d="M65.04,17.71h3.22c1.38,0,2.42.19,3.13.58.71.39,1.06,1.07,1.06,2.04,0,.39-.06.75-.19,1.06s-.31.58-.54.78-.52.33-.86.4v.07c.34.07.66.19.93.37.28.17.5.42.67.75s.25.76.25,1.31c0,.63-.15,1.17-.46,1.61-.31.45-.74.79-1.31,1.03s-1.25.36-2.03.36h-3.87v-10.35ZM67.23,21.81h1.27c.64,0,1.08-.1,1.32-.3.25-.2.37-.5.37-.89s-.15-.68-.44-.85c-.29-.17-.75-.26-1.38-.26h-1.15v2.3ZM67.23,23.55v2.7h1.43c.66,0,1.12-.13,1.38-.38.26-.25.39-.6.39-1.03,0-.25-.06-.48-.17-.67s-.3-.34-.57-.45-.63-.16-1.1-.16h-1.36Z"/>
    <path class="st1" d="M76.19,28.06h-2.16v-11.02h2.16v11.02Z"/>
    <path class="st1" d="M85.14,20.14v7.92h-1.66l-.29-1.01h-.11c-.17.27-.38.49-.64.66s-.54.29-.84.38c-.31.08-.63.12-.96.12-.57,0-1.06-.1-1.48-.3-.42-.2-.75-.51-.98-.94-.23-.42-.35-.98-.35-1.66v-5.16h2.16v4.62c0,.57.1.99.3,1.28s.53.43.97.43.78-.1,1.03-.3c.25-.2.43-.5.53-.88.1-.39.15-.87.15-1.43v-3.72h2.16Z"/>
    <path class="st1" d="M90.09,20c.73,0,1.36.14,1.89.42.53.28.94.69,1.22,1.22.29.53.43,1.18.43,1.95v1.05h-5.11c.02.61.21,1.09.55,1.43s.82.52,1.43.52c.5,0,.97-.05,1.39-.16.42-.1.85-.26,1.3-.47v1.67c-.39.19-.8.33-1.23.42s-.95.13-1.55.13c-.79,0-1.5-.15-2.11-.44-.61-.29-1.09-.74-1.44-1.34-.35-.6-.52-1.35-.52-2.27s.16-1.7.47-2.31.75-1.08,1.31-1.39c.56-.31,1.22-.46,1.96-.46ZM90.1,21.53c-.42,0-.77.13-1.04.4-.28.27-.44.69-.48,1.27h3.03c0-.32-.06-.61-.17-.86s-.28-.45-.5-.59c-.22-.15-.5-.22-.84-.22Z"/>
    <path class="st1" d="M101.53,25.18c0,.61-.15,1.15-.45,1.6s-.73.8-1.3,1.05c-.57.25-1.26.37-2.07.37-.36,0-.71-.02-1.05-.07-.34-.05-.67-.12-.98-.21-.31-.09-.61-.21-.9-.34v-2.04c.49.22,1,.41,1.53.59.53.17,1.05.26,1.57.26.36,0,.65-.05.87-.14.22-.09.38-.22.48-.39s.15-.35.15-.57c0-.26-.09-.48-.26-.67-.17-.18-.41-.36-.72-.52-.3-.16-.65-.33-1.03-.52-.24-.11-.5-.25-.79-.41s-.55-.36-.81-.6c-.25-.24-.46-.52-.63-.86-.16-.34-.24-.74-.24-1.21,0-.62.14-1.15.42-1.59.28-.44.69-.78,1.21-1.01s1.15-.35,1.87-.35c.54,0,1.05.06,1.54.19.49.13,1,.31,1.53.54l-.71,1.71c-.48-.19-.9-.34-1.28-.45-.38-.11-.76-.16-1.15-.16-.27,0-.51.04-.7.13-.19.09-.34.21-.44.37-.1.16-.15.34-.15.55,0,.25.07.45.22.62.14.17.36.33.65.49.29.16.65.34,1.09.54.53.25.98.51,1.36.78.38.27.66.59.87.96.2.37.3.82.3,1.36Z"/>
    <path class="st1" d="M105.03,17.04v2.24c0,.39-.01.76-.04,1.12-.03.35-.05.6-.06.75h.11c.17-.27.37-.5.6-.67.23-.17.49-.3.78-.38s.59-.12.91-.12c.57,0,1.07.1,1.49.3.42.2.76.51.99.94.24.43.35.98.35,1.66v5.16h-2.16v-4.62c0-.57-.1-.99-.31-1.28-.21-.29-.53-.43-.96-.43s-.78.1-1.03.3c-.25.2-.43.5-.53.88-.1.39-.16.87-.16,1.43v3.72h-2.16v-11.02h2.16Z"/>
    <path class="st1" d="M112.9,17.04c.32,0,.6.07.83.22s.35.43.35.83-.12.68-.35.83-.51.23-.83.23-.6-.08-.83-.23c-.23-.15-.34-.43-.34-.83s.11-.68.34-.83c.23-.15.51-.22.83-.22ZM113.98,20.14v7.92h-2.16v-7.92h2.16Z"/>
    <path class="st1" d="M118.93,20c.73,0,1.36.14,1.89.42.53.28.94.69,1.22,1.22.29.53.43,1.18.43,1.95v1.05h-5.11c.02.61.21,1.09.55,1.43.34.35.82.52,1.43.52.5,0,.97-.05,1.39-.16.42-.1.85-.26,1.3-.47v1.67c-.39.19-.8.33-1.23.42-.43.09-.95.13-1.55.13-.79,0-1.5-.15-2.11-.44-.61-.29-1.09-.74-1.44-1.34s-.52-1.35-.52-2.27.16-1.7.47-2.31c.31-.62.75-1.08,1.31-1.39.56-.31,1.22-.46,1.96-.46ZM118.94,21.53c-.42,0-.77.13-1.04.4-.28.27-.44.69-.48,1.27h3.03c0-.32-.06-.61-.17-.86-.11-.25-.28-.45-.5-.59s-.5-.22-.84-.22Z"/>
    <path class="st1" d="M125.96,28.06h-2.16v-11.02h2.16v11.02Z"/>
    <path class="st1" d="M130.15,28.2c-.88,0-1.6-.35-2.16-1.04s-.83-1.71-.83-3.05.28-2.38.84-3.08c.56-.7,1.29-1.04,2.2-1.04.38,0,.71.05,1,.16.29.1.54.24.75.42s.39.37.54.59h.07c-.03-.15-.06-.37-.1-.67s-.06-.6-.06-.91v-2.53h2.17v11.02h-1.66l-.42-1.03h-.09c-.14.22-.31.41-.51.59s-.45.32-.73.42c-.28.1-.62.16-1,.16ZM130.91,26.48c.59,0,1.01-.18,1.25-.53s.37-.88.39-1.59v-.23c0-.77-.12-1.36-.35-1.77-.24-.41-.67-.61-1.32-.61-.48,0-.85.21-1.12.62-.27.41-.4,1-.4,1.78s.14,1.36.41,1.75.66.59,1.15.59Z"/>
  </g>
</svg>